<svg xmlns="http://www.w3.org/2000/svg" xmlns:xlink="http://www.w3.org/1999/xlink"><defs>
<linearGradient id="paint0_linear_906_57223" x1="20" y1="20" x2="20" y2="12" gradientUnits="userSpaceOnUse">
<stop stop-color="#2C39F2"/>
<stop offset="0.952647" stop-color="#6547C3" stop-opacity="0"/>
</linearGradient>
<linearGradient id="paint1_linear_906_57223" x1="5" y1="14" x2="18" y2="13" gradientUnits="userSpaceOnUse">
<stop stop-color="#2C39F2"/>
<stop offset="0.952647" stop-color="#6547C3" stop-opacity="0"/>
</linearGradient>
</defs><symbol id="icon-close" viewBox="0 0 20 20"><path d="M.293 18.291a1 1 0 101.414 1.414L10 11.413l8.292 8.292a1 1 0 101.414-1.414l-8.292-8.292 8.292-8.292A1 1 0 1018.291.293L9.999 8.585 1.707.293A1 1 0 10.293 1.707L8.585 10 .293 18.291z"/></symbol><symbol id="icon-loader" viewBox="0 0 24 24">
<path d="M20 12C20 16.4183 16.4183 20 12 20C7.58172 20 4 16.4183 4 12" stroke="url(#paint0_linear_906_57223)" stroke-width="2" stroke-linecap="round" fill="none"/>
<path d="M20 12C20 16.4183 16.4183 20 12 20C7.58172 20 4 16.4183 4 12" stroke="url(#paint1_linear_906_57223)" stroke-width="2" stroke-linecap="round" fill="none"/>
<path d="M12 4C7.58172 4 4 7.58172 4 12" stroke="#2C39F2" stroke-width="2" stroke-linecap="round" fill="none"/>

</symbol></svg>